<svg xmlns="http://www.w3.org/2000/svg" viewBox="0 0 1024 1024">
  <rect width="1024" height="1024" rx="224" fill="#090907"/>
  <circle cx="512" cy="512" r="330" fill="#15130f" stroke="#dabb75" stroke-width="26"/>
  <path d="M327 618c42 70 110 111 190 111 95 0 164-57 164-136 0-76-49-114-153-139-70-17-94-34-94-67 0-34 32-58 78-58 50 0 88 24 113 72l76-45c-37-75-104-116-188-116-91 0-159 58-159 139 0 76 49 116 151 140 71 17 95 34 95 68 0 35-34 58-84 58-54 0-98-28-126-77z" fill="#f2d58b"/>
  <path d="M512 183v122M512 719v122" stroke="#f2d58b" stroke-width="46" stroke-linecap="round"/>
</svg>
